<?xml version="1.0" encoding="UTF-8" standalone="no"?>
<!-- Generated by IcoMoon.io -->

<svg
   xmlns:dc="http://purl.org/dc/elements/1.1/"
   xmlns:cc="http://creativecommons.org/ns#"
   xmlns:rdf="http://www.w3.org/1999/02/22-rdf-syntax-ns#"
   xmlns:svg="http://www.w3.org/2000/svg"
   xmlns="http://www.w3.org/2000/svg"
   xmlns:sodipodi="http://sodipodi.sourceforge.net/DTD/sodipodi-0.dtd"
   xmlns:inkscape="http://www.inkscape.org/namespaces/inkscape"
   version="1.1"
   width="128"
   height="128"
   viewBox="0 0 128 128"
   id="svg7"
   sodipodi:docname="about.svg"
   inkscape:version="0.92.5 (2060ec1f9f, 2020-04-08)">
  <metadata
     id="metadata13">
    <rdf:RDF>
      <cc:Work
         rdf:about="">
        <dc:format>image/svg+xml</dc:format>
        <dc:type
           rdf:resource="http://purl.org/dc/dcmitype/StillImage" />
        <dc:title></dc:title>
      </cc:Work>
    </rdf:RDF>
  </metadata>
  <defs
     id="defs11" />
  <sodipodi:namedview
     pagecolor="#ffffff"
     bordercolor="#666666"
     borderopacity="1"
     objecttolerance="10"
     gridtolerance="10"
     guidetolerance="10"
     inkscape:pageopacity="0"
     inkscape:pageshadow="2"
     inkscape:window-width="1280"
     inkscape:window-height="968"
     id="namedview9"
     showgrid="false"
     fit-margin-top="0"
     fit-margin-left="0"
     fit-margin-right="0"
     fit-margin-bottom="0"
     inkscape:zoom="0.36875"
     inkscape:cx="312.65573"
     inkscape:cy="307.232"
     inkscape:window-x="0"
     inkscape:window-y="32"
     inkscape:window-maximized="1"
     inkscape:current-layer="svg7" />
  <g
     id="icomoon-ignore"
     transform="translate(-12.768,-499.232)" />
  <path
     d="M 64.003333,0 C 28.651841,0 0,28.65184 0,63.99667 0,99.34816 28.651841,128 64.003333,128 99.34149,128 128,99.34816 128,63.99667 128,28.65184 99.34149,0 64.003333,0 Z m 5.973022,23.10546 c 6.239675,0 8.072913,3.61981 8.072913,7.7596 0,5.1664 -4.133118,9.94615 -11.19275,9.94615 -5.906359,0 -8.719546,-2.96651 -8.546222,-7.87959 0,-4.13979 3.45982,-9.82616 11.666059,-9.82616 z M 53.990521,102.328 c -4.266444,0 -7.379615,-2.59319 -4.399771,-13.95927 l 4.886413,-20.16562 c 0.846622,-3.22649 0.986615,-4.51976 0,-4.51976 -1.273267,0 -6.812979,2.22655 -10.079475,4.42644 L 42.271132,64.6233 c 10.366126,-8.65955 22.285506,-13.73928 27.38524,-13.73928 4.266445,0 4.973074,5.03973 2.846518,12.79933 l -5.599708,21.1989 c -0.993281,3.74647 -0.566637,5.03973 0.426645,5.03973 1.279933,0 5.466382,-1.54658 9.586167,-4.79308 l 2.413208,3.23983 C 69.24306,98.44821 58.250299,102.328 53.990521,102.328 Z"
     id="path5"
     inkscape:connector-curvature="0"
     style="fill:#000000;stroke-width:0.20832248" />
</svg>
