<?xml version="1.0" encoding="UTF-8" standalone="no"?>
<!-- Generated by IcoMoon.io -->

<svg
   xmlns:dc="http://purl.org/dc/elements/1.1/"
   xmlns:cc="http://creativecommons.org/ns#"
   xmlns:rdf="http://www.w3.org/1999/02/22-rdf-syntax-ns#"
   xmlns:svg="http://www.w3.org/2000/svg"
   xmlns="http://www.w3.org/2000/svg"
   xmlns:sodipodi="http://sodipodi.sourceforge.net/DTD/sodipodi-0.dtd"
   xmlns:inkscape="http://www.inkscape.org/namespaces/inkscape"
   version="1.1"
   width="128"
   height="128"
   viewBox="0 0 128 128"
   id="svg7"
   sodipodi:docname="config.svg"
   inkscape:version="0.92.5 (2060ec1f9f, 2020-04-08)">
  <metadata
     id="metadata13">
    <rdf:RDF>
      <cc:Work
         rdf:about="">
        <dc:format>image/svg+xml</dc:format>
        <dc:type
           rdf:resource="http://purl.org/dc/dcmitype/StillImage" />
        <dc:title></dc:title>
      </cc:Work>
    </rdf:RDF>
  </metadata>
  <defs
     id="defs11" />
  <sodipodi:namedview
     pagecolor="#ffffff"
     bordercolor="#666666"
     borderopacity="1"
     objecttolerance="10"
     gridtolerance="10"
     guidetolerance="10"
     inkscape:pageopacity="0"
     inkscape:pageshadow="2"
     inkscape:window-width="1280"
     inkscape:window-height="968"
     id="namedview9"
     showgrid="false"
     inkscape:zoom="2.6074563"
     inkscape:cx="78.905334"
     inkscape:cy="47.114359"
     inkscape:window-x="0"
     inkscape:window-y="32"
     inkscape:window-maximized="1"
     inkscape:current-layer="svg7" />
  <g
     id="icomoon-ignore"
     transform="translate(0,-384)" />
  <path
     d="m 116.72364,76.2815 c -6.71576,-11.63175 -2.67701,-26.538 9.01899,-33.311 L 113.16438,21.184 c -3.59376,2.10675 -7.772,3.31475 -12.23075,3.31475 C 87.491627,24.49875 76.595127,13.5305 76.595127,0 h -25.15725 c 0.03324,4.17624 -1.009251,8.41024 -3.244751,12.2815 -6.7155,11.632 -21.6445,15.58774 -33.35775,8.84474 L 2.257375,42.91275 c 3.62125,2.059 6.756251,5.07349 8.98575,8.93474 6.70475,11.61351 2.689,26.49001 -8.9635,33.27801 l 12.57825,21.7865 c 3.581251,-2.087 7.739501,-3.28175 12.175001,-3.28175 13.3995,0 24.268001,10.899 24.337501,24.36975 h 25.15675 c -0.01075,-4.13425 1.034,-8.32125 3.245751,-12.15225 6.704499,-11.61325 21.597002,-15.57425 33.301742,-8.8765 L 125.65288,85.185 c -3.59751,-2.05825 -6.71151,-5.06225 -8.92924,-8.9035 z M 63.999876,89.91675 c -14.313499,0 -25.917,-11.603 -25.917,-25.91675 0,-14.3135 11.603251,-25.91675 25.917,-25.91675 14.313751,0 25.916502,11.60325 25.916502,25.91675 -2.5e-4,14.31375 -11.603001,25.91675 -25.916502,25.91675 z"
     id="path5"
     inkscape:connector-curvature="0"
     style="stroke-width:0.25" />
</svg>
