<?xml version="1.0" encoding="UTF-8" standalone="no"?>
<!-- Generated by IcoMoon.io -->

<svg
   xmlns:dc="http://purl.org/dc/elements/1.1/"
   xmlns:cc="http://creativecommons.org/ns#"
   xmlns:rdf="http://www.w3.org/1999/02/22-rdf-syntax-ns#"
   xmlns:svg="http://www.w3.org/2000/svg"
   xmlns="http://www.w3.org/2000/svg"
   xmlns:sodipodi="http://sodipodi.sourceforge.net/DTD/sodipodi-0.dtd"
   xmlns:inkscape="http://www.inkscape.org/namespaces/inkscape"
   version="1.1"
   width="128"
   height="128"
   viewBox="0 0 128 128"
   id="svg7"
   sodipodi:docname="stats-dots.svg"
   inkscape:version="0.92.5 (2060ec1f9f, 2020-04-08)">
  <metadata
     id="metadata13">
    <rdf:RDF>
      <cc:Work
         rdf:about="">
        <dc:format>image/svg+xml</dc:format>
        <dc:type
           rdf:resource="http://purl.org/dc/dcmitype/StillImage" />
        <dc:title></dc:title>
      </cc:Work>
    </rdf:RDF>
  </metadata>
  <defs
     id="defs11" />
  <sodipodi:namedview
     pagecolor="#ffffff"
     bordercolor="#666666"
     borderopacity="1"
     objecttolerance="10"
     gridtolerance="10"
     guidetolerance="10"
     inkscape:pageopacity="0"
     inkscape:pageshadow="2"
     inkscape:window-width="1280"
     inkscape:window-height="968"
     id="namedview9"
     showgrid="false"
     fit-margin-top="0"
     fit-margin-left="0"
     fit-margin-right="0"
     fit-margin-bottom="0"
     inkscape:zoom="0.4609375"
     inkscape:cx="260.33898"
     inkscape:cy="256"
     inkscape:window-x="0"
     inkscape:window-y="32"
     inkscape:window-maximized="1"
     inkscape:current-layer="svg7" />
  <g
     id="icomoon-ignore"
     transform="translate(0,-384)" />
  <path
     d="m 16,112 h 112 v 16 H 0 V 0 h 16 z m 20,-8 c -6.6275,0 -12,-5.3725 -12,-12 0,-6.6275 5.3725,-12 12,-12 0.3535,0 0.70275,0.0185 1.0485,0.0482 L 49.9475,58.55 C 48.7175,56.66625 48,54.41725 48,51.99975 c 0,-6.6275 5.3725,-12 12,-12 6.6275,0 12,5.3725 12,12 0,2.41775 -0.7175,4.6665 -1.9475,6.55025 l 12.899,21.49825 C 83.29725,80.0185 83.6465,80 84,80 c 0.267,0 0.531,0.0118 0.79375,0.0288 l 21.2945,-37.26525 C 104.77125,40.8375 104,38.509 104,35.99975 c 0,-6.6275 5.3725,-12 12,-12 6.6275,0 12,5.3725 12,12 0,6.6275 -5.3725,12 -12,12 -0.2675,0 -0.531,-0.0118 -0.79375,-0.029 l -21.2945,37.2655 C 95.22875,87.162 96,89.49075 96,92 c 0,6.6275 -5.3725,12 -12,12 -6.6275,0 -12,-5.3725 -12,-12 0,-2.4175 0.7175,-4.6665 1.94725,-6.55025 L 61.0485,63.95175 C 60.70275,63.9815 60.3535,64 60,64 59.6465,64 59.29725,63.9817 58.9515,63.9518 L 46.0525,85.45 C 47.2825,87.3335 48,89.5825 48,92 c 0,6.6275 -5.3725,12 -12,12 z"
     id="path5"
     inkscape:connector-curvature="0"
     style="stroke-width:0.25" />
</svg>
