<?xml version="1.0" encoding="UTF-8" standalone="no"?>
<!-- Generated by IcoMoon.io -->

<svg
   xmlns:dc="http://purl.org/dc/elements/1.1/"
   xmlns:cc="http://creativecommons.org/ns#"
   xmlns:rdf="http://www.w3.org/1999/02/22-rdf-syntax-ns#"
   xmlns:svg="http://www.w3.org/2000/svg"
   xmlns="http://www.w3.org/2000/svg"
   xmlns:sodipodi="http://sodipodi.sourceforge.net/DTD/sodipodi-0.dtd"
   xmlns:inkscape="http://www.inkscape.org/namespaces/inkscape"
   version="1.1"
   width="128"
   height="128"
   viewBox="0 0 128 128"
   id="svg884"
   sodipodi:docname="user.svg"
   inkscape:version="0.92.5 (2060ec1f9f, 2020-04-08)">
  <metadata
     id="metadata890">
    <rdf:RDF>
      <cc:Work
         rdf:about="">
        <dc:format>image/svg+xml</dc:format>
        <dc:type
           rdf:resource="http://purl.org/dc/dcmitype/StillImage" />
        <dc:title></dc:title>
      </cc:Work>
    </rdf:RDF>
  </metadata>
  <defs
     id="defs888" />
  <sodipodi:namedview
     pagecolor="#ffffff"
     bordercolor="#666666"
     borderopacity="1"
     objecttolerance="10"
     gridtolerance="10"
     guidetolerance="10"
     inkscape:pageopacity="0"
     inkscape:pageshadow="2"
     inkscape:window-width="1280"
     inkscape:window-height="968"
     id="namedview886"
     showgrid="false"
     inkscape:zoom="2.0688398"
     inkscape:cx="149.72506"
     inkscape:cy="82.515611"
     inkscape:window-x="0"
     inkscape:window-y="32"
     inkscape:window-maximized="1"
     inkscape:current-layer="svg884" />
  <g
     id="icomoon-ignore"
     transform="translate(0,-384)" />
  <path
     style="stroke-width:0.26960269"
     d="m 64.109372,4.5915941e-7 c -0.127985,0 -0.257086,-5.6807480941e-4 -0.427733,0.0382586308406 L 15.90039,13.705529 c -0.554605,0.194133 -0.9375,0.659854 -0.9375,1.203429 0,0.543573 0.382895,1.009295 0.9375,1.203429 l 14.207031,4.038096 c -2.64504,3.377925 -3.925669,8.270665 -4.181641,12.813391 -1.621154,0.854188 -2.773437,2.445706 -2.773437,4.30939 0,1.747201 0.98144,3.261598 2.474609,4.154613 l -2.474609,16.811489 c -0.04267,0.34944 0.08583,0.700347 0.341797,0.972134 0.255971,0.271787 0.63948,0.426069 1.023437,0.426069 h 8.191406 c 0.383959,0 0.767465,-0.154282 1.023438,-0.426069 0.255972,-0.271787 0.384459,-0.622694 0.341798,-0.972134 L 31.599608,41.427877 c 1.493168,-0.893015 2.474611,-2.407412 2.474611,-4.154613 0,-1.824857 -1.066347,-3.376944 -2.687501,-4.231132 0.341295,-5.241609 2.048739,-9.513208 4.480469,-11.260411 l 27.814452,7.997935 c 0.170647,0.03883 0.299748,0.03999 0.427733,0.03999 0.127987,0 0.255133,-0.0012 0.425782,-0.03999 L 112.3164,16.112387 c 0.55461,-0.194134 0.93946,-0.659856 0.93946,-1.203429 0,-0.543575 -0.38485,-1.009296 -0.93946,-1.203429 L 64.535154,0.0382591 C 64.364505,-5.6757588e-4 64.237359,4.6910069e-7 64.109372,4.5915941e-7 Z M 37.572265,27.489315 36.804686,39.758379 c -0.341295,5.474569 12.245022,9.940465 27.304686,9.940465 15.059667,0 27.644031,-4.465896 27.302733,-9.940465 l -0.767577,-12.269064 -24.48828,7.02754 c -0.682591,0.194133 -1.364285,0.271293 -2.046876,0.271293 -0.682589,0 -1.366236,-0.07717 -2.048827,-0.271293 z m -0.597657,16.934961 c -1.249327,6.142601 -0.402342,6.275586 -0.402342,14.378545 0,12.600411 8.214011,25.199288 18.285154,30.25268 V 95.76827 C 23.842849,98.025812 0,111.5953 0,128 H 128 C 128,111.5953 104.15715,98.025812 73.142576,95.76827 v -6.712769 c 10.07114,-5.053392 18.285155,-17.652269 18.285155,-30.25268 0,-6.584219 0.162169,-7.414707 -0.783203,-12.754262 -3.155451,4.154356 -14.078303,7.211879 -26.535156,7.211879 C 47.993968,52.231365 39.323111,52.258755 36.974608,44.424276 Z"
     id="path882"
     inkscape:connector-curvature="0" />
  <g
     id="g983"
     transform="matrix(0.97835004,0,0,0.89039848,-1.4493594,14.028993)">
    <g
       transform="matrix(0.17442405,0,0,0.17442405,14.478701,-23.337567)"
       id="icomoon-ignore-3"
       style="fill:#5c0000;fill-opacity:1" />
  </g>
  <g
     style="fill:#5c0000;fill-opacity:1"
     transform="matrix(0.17064777,0,0,0.17442405,14.962065,-21.337567)"
     id="g977">
    <g
       style="fill:#5c0000;fill-opacity:1"
       id="g973" />
  </g>
</svg>
